<svg version="1.2" xmlns="http://www.w3.org/2000/svg" viewBox="0 0 2760 1840" width="720" height="480">
	<style>
		.s0 { fill: #deebe9 } 
		.s1 { fill: #bed5dc } 
		.s2 { fill: #42428e } 
		.s3 { fill: #b2c9c6 } 
		.s4 { fill: #9bbcb6 } 
		.s5 { fill: #74a1bd } 
		.s6 { fill: #cfd3a3 } 
		.s7 { fill: #c4c695 } 
		.s8 { fill: #56335b } 
		.s9 { fill: #2f1a31 } 
		.s10 { fill: #6f4975 } 
		.s11 { fill: #96a7e2 } 
		.s12 { fill: #e6edff } 
		.s13 { fill: #b7b784 } 
		.s14 { fill: #e28569 } 
		.s15 { fill: #d3715b } 
		.s16 { fill: #436e8e } 
		.s17 { fill: #f7b686 } 
		.s18 { fill: #020202 } 
		.s19 { fill: #ffffff } 
		.s20 { fill: #db6b49 } 
		.s21 { fill: #060633 } 
		.s22 { fill: #e08b65 } 
		.s23 { fill: #dd8964 } 
		.s24 { fill: #e7f2f0 } 
		.s25 { fill: #eaa97d } 
		.s26 { fill: #ced891 } 
		.s27 { fill: #264c63 } 
	</style>
	<g id="&lt;Layer&gt;">
		<g id="&lt;Group&gt;">
			<g id="&lt;Group&gt;">
				<path id="&lt;Path&gt;" class="s0" d="m2275.61 1693.98c-197.88 25-401.75 14.58-818.31-11.58-233.91-14.68-704.22 9.65-938.97 11.58-171.15 1.41-309.9-127.53-309.9-284.85v-479.86-501.25c0-157.32 139.04-294.11 309.9-284.86 158.67 8.6 392.05 42.62 635.33 21.79 289.35-24.78 838.56-45.83 1121.95-21.79 170.43 14.47 309.9 127.54 309.9 284.86v981.11c0 157.32-140.34 263.43-309.9 284.85z"/>
			</g>
			<g id="&lt;Group&gt;">
				<path id="&lt;Path&gt;" class="s1" d="m2400.05 1405.83c0 75.14-425.91 136.06-951.3 136.06-525.38 0-951.29-60.92-951.29-136.06 0-75.15 425.91-136.07 951.29-136.07 525.39 0 951.3 60.92 951.3 136.07z"/>
			</g>
			<g id="&lt;Group&gt;">
				<path id="&lt;Path&gt;" class="s2" d="m989.51 1450.81l-0.73-1.1c0.08-0.05 7.55-5.04 8.58-10.86q0.53-3.04-1.41-5.68-1.38-1.87-3.39-1.82c-6.49 0.1-15.88 13.48-15.97 13.61l-1.71 2.46 0.52-2.95c0.02-0.12 2.05-11.95-2.08-15.48q-1.94-1.65-5.44-0.46c-2.45 0.83-4.15 2.36-5.06 4.54-2.7 6.51 2.24 16.79 2.29 16.9l-1.18 0.58c-0.22-0.45-5.26-10.93-2.33-17.98 1.06-2.55 3.03-4.33 5.85-5.29q4.22-1.43 6.73 0.71c3.43 2.94 3.24 10.25 2.85 14.16 3.03-3.92 9.97-12.04 15.51-12.11q2.71-0.04 4.47 2.34c1.52 2.06 2.07 4.31 1.65 6.7-1.13 6.38-8.83 11.51-9.15 11.73z"/>
			</g>
			<g id="&lt;Group&gt;">
				<g id="&lt;Group&gt;">
					<path id="&lt;Path&gt;" class="s1" d="m1437.39 1327.8c0 0-32.22-32.84-21.13-51.55 11.08-18.71 29.79 40.18 29.79 40.18 0 0-9.7-69.64 10.4-70.84 20.09-1.21 0 70.84 0 70.84 0 0 7.44-16.8 14.72-17.84 7.27-1.04 5.2 14.25-7.8 29.21z"/>
				</g>
				<g id="&lt;Group&gt;">
					<path id="&lt;Path&gt;" class="s2" d="m1439.7 1328.63c-0.09-0.1-9.31-9.55-16.86-21.48-10.29-16.28-12.74-29.21-7.28-38.42 2.03-3.44 4.48-5.03 7.27-4.71 5.56 0.64 12.08 9.41 19.4 26.09 2.23 5.07 4.2 10.15 5.75 14.35-1.78-18.23-3.84-54.54 6.2-66.8 2.18-2.66 4.84-4.1 7.9-4.29 2.99-0.18 5.44 0.89 7.29 3.18 9.02 11.17 0.86 50.63-3.62 69.1 3.35-5.42 8.09-11.45 12.93-12.15 2.3-0.32 4.12 0.53 5.15 2.41 2.92 5.37-1.11 19.06-12.93 32.66l-1.78-1.54c11.62-13.38 14.8-26.01 12.64-29.99-0.55-1.01-1.42-1.39-2.74-1.2-6.24 0.89-13.51 14.41-15.79 19.55l-2.21-0.8c0.04-0.16 4.44-16.03 7.4-33.41 3.86-22.73 3.56-37.65-0.89-43.15-1.36-1.68-3.1-2.43-5.31-2.3-2.41 0.14-4.45 1.26-6.22 3.42-12.67 15.48-4.55 75-4.47 75.6l-2.29 0.51c-4.2-13.23-17.19-47.81-26.68-48.89-1.8-0.2-3.43 0.95-4.98 3.56-11.97 20.2 23.44 56.68 23.8 57.05z"/>
				</g>
			</g>
			<g id="&lt;Group&gt;">
				<g id="&lt;Group&gt;">
					<g id="&lt;Group&gt;">
						<path id="&lt;Path&gt;" class="s3" d="m1255.09 399.11c9.44 11.79 16 12.3 20.62 8.6 4.62-3.7 5.56-10.21-3.89-22-17.2-21.49-33.88-25.17-33.88-25.17 0 0-0.31 16.77 17.15 38.57z"/>
					</g>
					<g id="&lt;Group&gt;">
						<path id="&lt;Path&gt;" class="s3" d="m1220.77 490.8c5.12 14.22 11.16 16.82 16.73 14.81 5.57-2 8.57-7.86 3.45-22.07-9.33-25.9-23.92-34.78-23.92-34.78 0 0-5.72 15.77 3.74 42.04z"/>
					</g>
					<g id="&lt;Group&gt;">
						<g id="&lt;Group&gt;">
							<g id="&lt;Group&gt;">
								<path id="&lt;Path&gt;" class="s3" d="m1135.51 730.98l2.75 0.79c0.12-0.43 12.54-43.03 49.54-98.26 34.14-50.95 96.78-123.38 201.37-179.08l-1.35-2.52c-105.16 56-168.15 128.86-202.47 180.12-37.21 55.58-49.72 98.52-49.84 98.95z"/>
							</g>
						</g>
						<g id="&lt;Group&gt;">
							<g id="&lt;Group&gt;">
								<path id="&lt;Path&gt;" class="s3" d="m1275.99 529.94l2.8-0.58c-21.13-101.67 48.28-188.83 48.98-189.7l-2.22-1.8c-0.71 0.88-70.97 89.05-49.56 192.08z"/>
							</g>
						</g>
						<g id="&lt;Group&gt;">
							<g id="&lt;Group&gt;">
								<path id="&lt;Path&gt;" class="s3" d="m1332.77 501.96c27.13 10.36 52.82 4.6 53.12 4.54l-0.65-2.79c-0.33 0.08-33.24 7.41-63.31-10.08l-1.44 2.47c4.07 2.37 8.19 4.3 12.28 5.86z"/>
							</g>
						</g>
						<g id="&lt;Group&gt;">
							<g id="&lt;Group&gt;">
								<path id="&lt;Path&gt;" class="s3" d="m1163 672.52c57.25 14.71 111.94 4.93 162.53-29.06 1.75-1.17 3.41-2.28 3.83-2.44 0 0.01-0.13 0.05-0.32 0.04l0.12-2.85c-0.85-0.04-1.56 0.42-5.22 2.88-49.89 33.51-103.8 43.16-160.23 28.66z"/>
							</g>
						</g>
						<g id="&lt;Group&gt;">
							<g id="&lt;Group&gt;">
								<path id="&lt;Path&gt;" class="s3" d="m1251.57 673.38l2.85 0.28c3.88-38.61 46.87-81.17 47.3-81.59l-2-2.04c-0.11 0.11-11.15 10.98-22.53 26.56-10.53 14.44-23.53 36.01-25.62 56.79z"/>
							</g>
						</g>
						<g id="&lt;Group&gt;">
							<g id="&lt;Group&gt;">
								<path id="&lt;Path&gt;" class="s3" d="m1396.64 440.22c-19 7.35-22.93 14.01-20.79 19.54 2.14 5.52 9.52 7.81 28.52 0.46 34.62-13.4 47.48-29.87 47.48-29.87 0 0-20.09-3.72-55.21 9.87z"/>
							</g>
						</g>
						<g id="&lt;Group&gt;">
							<g id="&lt;Group&gt;">
								<path id="&lt;Path&gt;" class="s3" d="m1382.02 495.12c-20.33 1.28-26.08 6.46-25.71 12.37 0.38 5.91 6.73 10.32 27.06 9.04 37.04-2.34 54.27-14.17 54.27-14.17 0 0-18.04-9.61-55.62-7.24z"/>
							</g>
						</g>
						<g id="&lt;Group&gt;">
							<g id="&lt;Group&gt;">
								<path id="&lt;Path&gt;" class="s3" d="m1297.08 580.34c-11.26 10.08-11.41 16.65-7.46 21.06 3.95 4.41 10.5 4.99 21.76-5.08 20.5-18.36 23.26-35.22 23.26-35.22 0 0-16.76 0.61-37.56 19.24z"/>
							</g>
						</g>
						<g id="&lt;Group&gt;">
							<g id="&lt;Group&gt;">
								<path id="&lt;Path&gt;" class="s3" d="m1321.69 448.97c-8.46 12.52-7.01 18.93-2.1 22.25 4.9 3.32 11.4 2.28 19.86-10.23 15.43-22.8 14-39.82 14-39.82 0 0-16.11 4.67-31.76 27.8z"/>
							</g>
						</g>
						<g id="&lt;Group&gt;">
							<g id="&lt;Group&gt;">
								<path id="&lt;Path&gt;" class="s3" d="m1221.64 645.73c-4.61 14.39-1.41 20.13 4.23 21.94 5.64 1.81 11.58-1.01 16.19-15.4 8.39-26.21 2.24-42.15 2.24-42.15 0 0-14.15 9.02-22.66 35.61z"/>
							</g>
						</g>
						<g id="&lt;Group&gt;">
							<g id="&lt;Group&gt;">
								<path id="&lt;Path&gt;" class="s3" d="m1314.38 636.47c-13.16 7.43-14.71 13.82-11.79 18.98 2.91 5.15 9.18 7.12 22.34-0.31 23.96-13.54 30.26-29.42 30.26-29.42 0 0-16.51-2.99-40.82 10.75z"/>
							</g>
						</g>
						<g id="&lt;Group&gt;">
							<g id="&lt;Group&gt;">
								<path id="&lt;Path&gt;" class="s3" d="m1324.05 324.89c-11.51 16.82-10.97 24.53-6.08 27.87 4.89 3.34 12.27 1.05 23.78-15.76 20.95-30.64 22.23-51.5 22.23-51.5 0 0-18.67 8.31-39.93 39.39z"/>
							</g>
						</g>
					</g>
				</g>
			</g>
			<g id="&lt;Group&gt;">
				<path id="&lt;Path&gt;" class="s3" d="m880.63 1117.33c0 0-289.2-369.96-386.64-287.72-97.44 82.25 248.72 204.97 329.5 315.34z"/>
			</g>
			<g id="&lt;Group&gt;">
				<g id="&lt;Group&gt;">
					<path id="&lt;Path&gt;" class="s4" d="m759.63 1059.57c0 0-313.46-262.29-399.02-166.89-85.56 95.41 258.61 125.02 346.84 204.53z"/>
				</g>
				<g id="&lt;Group&gt;">
					<g id="&lt;Group&gt;">
						<path id="&lt;Path&gt;" class="s5" d="m730.63 1080.88c-59.94-56.02-143.82-95.8-203.62-119.31-64.84-25.48-116.12-37.86-116.63-37.98l0.77-3.19c0.51 0.13 52.01 12.55 117.06 38.12 60.07 23.62 144.34 63.6 204.65 119.97z"/>
					</g>
				</g>
			</g>
			<g id="&lt;Group&gt;">
				<g id="&lt;Group&gt;">
					<g id="&lt;Group&gt;">
						<path id="&lt;Path&gt;" class="s6" d="m606.67 1311.99c67.75-13.67 98.44 84.53 161.38 36.3 62.92-48.27 55.09-50.23 102.42-34.42 0 0 26.16 23.83 56.37 16.49 119.18-28.98 198.94-258.85 44.01-298.56-11.18-2.87-24.42-0.07-38.78 3.7-77.87 20.5-85.95 63.9-180.94 3.1-95.02-60.8-119.09 96.47-169.87 113.52-50.78 17.04-100.27 21.22-115.71 89.67-15.43 68.51 73.38 83.92 141.12 70.2z"/>
					</g>
				</g>
				<g id="&lt;Group&gt;">
					<g id="&lt;Group&gt;">
						<g id="&lt;Group&gt;">
							<path id="&lt;Path&gt;" class="s7" d="m987.67 1166.31l0.81-4.47c-1.97-0.36-201.01-34.39-525.27 98.5l1.72 4.21c323.05-132.39 520.78-98.6 522.74-98.24z"/>
						</g>
					</g>
					<g id="&lt;Group&gt;">
						<g id="&lt;Group&gt;">
							<path id="&lt;Path&gt;" class="s7" d="m733.74 1129.71c25.67-56.63 19.89-90.13 19.63-91.53l-4.47 0.82c0.06 0.33 5.71 33.65-19.3 88.83z"/>
						</g>
					</g>
					<g id="&lt;Group&gt;">
						<g id="&lt;Group&gt;">
							<path id="&lt;Path&gt;" class="s7" d="m746.06 1177.85c2.73-26.16-11.61-55.88-41.47-85.94-22.35-22.51-45.84-37.55-46.07-37.7l-2.44 3.83c0.92 0.58 91.72 59.18 85.46 119.34z"/>
						</g>
					</g>
					<g id="&lt;Group&gt;">
						<g id="&lt;Group&gt;">
							<path id="&lt;Path&gt;" class="s7" d="m658.42 1207.56c3.19-6.42 4.71-10.35 4.78-10.53l-4.25-1.61c-0.31 0.83-32.51 83.6-118.37 118.11l1.7 4.22c69.18-27.81 104.24-86.27 116.14-110.19z"/>
						</g>
					</g>
					<g id="&lt;Group&gt;">
						<g id="&lt;Group&gt;">
							<path id="&lt;Path&gt;" class="s7" d="m658.92 1322.08c9.9-30.03 5.99-54.01 0.96-68.83-5.47-16.13-13.24-25.05-13.57-25.42l-3.41 3c0.3 0.35 29.83 34.84 11.7 89.83z"/>
						</g>
					</g>
				</g>
			</g>
			<g id="&lt;Group&gt;" style="opacity: .6">
				<path id="&lt;Path&gt;" class="s3" d="m1352.18 937.45c0 0 190.33-672.01 370.74-613.52 180.41 58.5-227.31 422.05-276.52 619.44z"/>
			</g>
			<g id="&lt;Group&gt;">
				<g id="&lt;Group&gt;" style="opacity: .6">
					<path id="&lt;Path&gt;" class="s3" d="m1486.88 902.21c0 0 232.89-402.91 361.65-334.26 128.76 68.65-227.81 234.67-291.15 354.16z"/>
				</g>
				<g id="&lt;Group&gt;">
					<g id="&lt;Group&gt;">
						<path id="&lt;Path&gt;" class="s3" d="m1526.22 913.69c42.24-83.32 116.43-158.61 171.22-207.1 59.41-52.57 109.42-85.82 109.92-86.15l-2.06-3.11c-0.5 0.33-50.73 33.72-110.33 86.47-55.04 48.7-129.57 124.36-172.08 208.2z"/>
					</g>
				</g>
			</g>
			<g id="&lt;Group&gt;">
				<g id="&lt;Group&gt;">
					<g id="&lt;Group&gt;">
						<path id="&lt;Path&gt;" class="s8" d="m1274.35 1278.64v-138.56h-279.49v138.56c0 36-23.96 65.19-53.52 65.19h-11.26v17.89h409.06v-17.89h-11.27c-29.55 0-53.52-29.19-53.52-65.19z"/>
					</g>
					<g id="&lt;Group&gt;">
						<path id="&lt;Path&gt;" class="s9" d="m1336.85 1361.72h-404.48c-4.94 0-8.95-4-8.95-8.94 0-4.94 4.01-8.95 8.95-8.95h404.48c4.94 0 8.95 4.01 8.95 8.95 0 4.94-4.01 8.94-8.95 8.94z"/>
					</g>
				</g>
				<g id="&lt;Group&gt;">
					<path id="&lt;Path&gt;" class="s10" d="m1610.69 1225.15l-945.14-10.85c-20.23-0.23-36.51-16.7-36.51-36.93v-576.87c0-20.18 16.19-36.62 36.37-36.93l932.95-14.29c20.32-0.31 37.08 15.86 37.49 36.19l12.19 601.99c0.43 20.86-16.49 37.92-37.35 37.69z"/>
				</g>
				<g id="&lt;Group&gt;">
					<path id="&lt;Path&gt;" class="s11" d="m1580.26 1110.74h-896.37c-10.07 0-18.23-8.16-18.23-18.23v-466.9c0-10.06 8.16-18.22 18.23-18.22h896.37c10.07 0 18.22 8.16 18.22 18.22v466.9c0 10.07-8.15 18.23-18.22 18.23z"/>
				</g>
			</g>
			<g id="&lt;Group&gt;">
				<g id="&lt;Group&gt;">
					<g id="&lt;Group&gt;">
						<path id="&lt;Path&gt;" class="s6" d="m1882.71 1205.32l173.8 0.4 197.86 4.93 0.51 14.9-191.38-8.32c-19.24 0.67-34.24 18.28-33.51 39.35 0.72 21.07 16.91 37.62 36.14 36.95l190.87-6.58 0.38 11-372.03 16.41c-24.97 0.86-45.97-24.19-46.91-51.54-0.94-27.35 19.3-56.64 44.27-57.5z"/>
					</g>
					<g id="&lt;Group&gt;">
						<path id="&lt;Path&gt;" class="s6" d="m2013.01 1256.8c-0.94-27.35 18.53-50.22 43.5-51.08l197.86 4.93 0.51 14.9-191.38-8.32c-19.24 0.67-34.24 18.28-33.51 39.35 0.72 21.07 16.91 37.62 36.14 36.95l190.87-6.58 0.38 17.84-197.46-0.03c-24.96 0.87-45.97-20.61-46.91-47.96z"/>
					</g>
					<g id="&lt;Group&gt;">
						<path id="&lt;Path&gt;" class="s12" d="m2063.5 1217.27l191.38 8.28c-17.26 2.78-22.46 20.33-24.85 29.69-4.83 18.99 9.54 29.9 26.96 31.49l0.01 0.26-190.87 6.58c-19.23 0.67-35.41-15.88-36.14-36.94-0.73-21.08 14.28-38.69 33.51-39.36z"/>
					</g>
					<g id="&lt;Group&gt;">
						<path id="&lt;Path&gt;" class="s9" d="m2067.63 1267.65l-0.02-1.04 114.5-2.66 0.02 1.04z"/>
					</g>
					<g id="&lt;Group&gt;">
						<g id="&lt;Group&gt;">
							<path id="&lt;Path&gt;" class="s13" d="m2025.13 1287.5c0.55 0 1.09-0.23 1.42-0.66 0.52-0.68 0.31-1.6-0.47-2.06-0.13-0.07-12.48-7.48-14.49-28.24-1.99-20.62 14.67-28.54 14.84-28.62 0.83-0.39 1.15-1.28 0.71-2.01-0.45-0.72-1.48-0.99-2.31-0.61-0.77 0.35-18.82 8.94-16.64 31.49 2.15 22.3 15.43 30.14 16 30.47q0.44 0.24 0.94 0.24z"/>
						</g>
					</g>
					<g id="&lt;Group&gt;">
						<path id="&lt;Path&gt;" class="s9" d="m2197.01 1255.25l-85.34-1.33 0.02-1.04 85.33 1.33z"/>
					</g>
					<g id="&lt;Group&gt;">
						<g id="&lt;Group&gt;">
							<path id="&lt;Compound Path&gt;" fill-rule="evenodd" class="s13" d="m1973.29 1283.26c-0.21-0.23-19.9-23.79-1.75-49.79 0.31-0.44 0.8-0.71 1.34-0.73l29.05-1c0.7 0.03 1.24 0.32 1.55 0.88 0.32 0.55 0.29 1.24-0.07 1.77-0.08 0.13-8.14 12.46-5.16 24.31 3.08 12.3 8.38 21.44 8.43 21.53 0.31 0.52 0.31 1.16 0.02 1.69-0.29 0.53-0.83 0.86-1.43 0.88l-30.63 1.06q-0.03 0-0.05 0c-0.5 0-0.98-0.22-1.3-0.6zm21.64-23.73c-2.47-9.85 1.61-19.63 4.04-24.27l-25.11 0.87c-14.47 21.53-1.36 40.56 1.52 44.28l27.02-0.93c-1.85-3.62-5.2-10.89-7.47-19.95z"/>
						</g>
					</g>
				</g>
				<g id="&lt;Group&gt;">
					<g id="&lt;Group&gt;">
						<path id="&lt;Path&gt;" class="s14" d="m2259.91 1111.87l-177.93-3.58-201.49 7.92-0.31 15.19 194.84-11.28c19.61 0.4 35.15 18.13 34.72 39.6-0.43 21.47-16.68 38.56-36.28 38.17l-194.54-3.91-0.22 11.22 379.18 7.62c25.44 0.51 46.53-21.68 47.09-49.55 0.56-27.88-19.62-50.89-45.06-51.4z"/>
					</g>
					<g id="&lt;Group&gt;">
						<path id="&lt;Path&gt;" class="s14" d="m2127.04 1159.69c0.56-27.87-19.62-50.88-45.06-51.4l-201.49 7.92-0.31 15.19 194.84-11.28c19.61 0.4 35.15 18.13 34.72 39.6-0.43 21.47-16.68 38.56-36.28 38.17l-194.54-3.91-0.22 11.22 201.25 4.04c25.44 0.51 46.53-21.67 47.09-49.55z"/>
					</g>
					<g id="&lt;Group&gt;">
						<path id="&lt;Path&gt;" class="s12" d="m2075.02 1120.16l-194.84 11.24c17.63 2.58 23.18 20.38 25.75 29.88 5.2 19.27-9.29 30.61-27 32.48l-0.01 0.26 194.54 3.91c19.6 0.4 35.85-16.69 36.28-38.17 0.43-21.47-15.11-39.2-34.72-39.6z"/>
					</g>
					<g id="&lt;Group&gt;">
						<path id="&lt;Path&gt;" class="s9" d="m2063.81 1174.36l-157.02-3.15 0.02-1.06 157.02 3.15z"/>
					</g>
					<g id="&lt;Group&gt;">
						<g id="&lt;Group&gt;">
							<path id="&lt;Path&gt;" class="s15" d="m2122.45 1192.31q0.47 0.01 0.88-0.27c0.51-0.34 12.45-8.74 14.07-32.1 1.65-23.64-14.87-32.4-15.58-32.76-0.76-0.39-1.69-0.09-2.09 0.67-0.39 0.76-0.09 1.7 0.67 2.09 0.64 0.33 15.4 8.25 13.9 29.78-1.52 21.88-12.61 29.68-12.72 29.76-0.71 0.48-0.89 1.45-0.41 2.16 0.3 0.44 0.79 0.67 1.28 0.67z"/>
						</g>
					</g>
					<g id="&lt;Group&gt;">
						<path id="&lt;Path&gt;" class="s9" d="m1905.94 1161.81l-0.03-1.06 120.54-3.61 0.03 1.06z"/>
					</g>
					<g id="&lt;Group&gt;">
						<g id="&lt;Group&gt;">
							<path id="&lt;Compound Path&gt;" fill-rule="evenodd" class="s15" d="m2162.78 1183.9l-7.95-0.16c-3.65-0.07-6.95-1.83-9.05-4.81-2.08-2.97-2.61-6.63-1.45-10.05 0.83-2.48 1.55-4.97 2.13-7.41 0.74-3.17 0.7-6.68-0.14-10.43-0.76-3.38 0.07-6.86 2.26-9.54 2.22-2.72 5.51-4.23 9.01-4.16l6.27 0.12c4.13 0.09 7.84 2.34 9.7 5.88 7.68 14.65 2.94 27.95-0.56 34.58-1.97 3.71-5.78 5.99-9.98 5.99q-0.12 0-0.24-0.01zm-5.25-43.46c-2.53-0.06-4.93 1.05-6.54 3.02-1.59 1.95-2.19 4.46-1.64 6.91 0.94 4.2 0.98 8.18 0.13 11.81-0.6 2.53-1.34 5.12-2.21 7.69-0.84 2.48-0.45 5.13 1.05 7.27 1.53 2.17 3.92 3.45 6.57 3.5l7.95 0.16c3.11 0.07 5.96-1.6 7.41-4.34 3.22-6.08 7.58-18.29 0.56-31.68-1.33-2.54-4.02-4.15-7.01-4.21z"/>
						</g>
					</g>
				</g>
				<g id="&lt;Group&gt;">
					<g id="&lt;Group&gt;">
						<path id="&lt;Path&gt;" class="s11" d="m2259.91 1305.11l-177.93-3.57-201.49 7.92-0.31 15.18 194.84-11.27c19.61 0.39 35.15 18.12 34.72 39.59-0.43 21.48-16.68 38.57-36.28 38.17l-194.54-3.9-0.22 11.21 379.18 7.62c25.44 0.51 46.53-21.67 47.09-49.55 0.56-27.87-19.62-50.88-45.06-51.4z"/>
					</g>
					<g id="&lt;Group&gt;">
						<path id="&lt;Path&gt;" class="s11" d="m2127.04 1352.94c0.56-27.88-19.62-50.89-45.06-51.4l-201.49 7.92-0.31 15.18 194.84-11.27c19.61 0.39 35.15 18.12 34.72 39.59-0.43 21.48-16.68 38.57-36.28 38.17l-194.54-3.9-0.22 11.21 201.25 4.05c25.44 0.51 46.53-21.68 47.09-49.55z"/>
					</g>
					<g id="&lt;Group&gt;">
						<path id="&lt;Path&gt;" class="s12" d="m2075.02 1313.41l-194.84 11.23c17.63 2.58 23.18 20.38 25.75 29.89 5.2 19.27-9.29 30.6-27 32.47l-0.01 0.27 194.54 3.91c19.6 0.39 35.85-16.7 36.28-38.17 0.43-21.48-15.11-39.21-34.72-39.6z"/>
					</g>
					<g id="&lt;Group&gt;">
						<path id="&lt;Path&gt;" class="s9" d="m2063.81 1367.61l-157.02-3.16 0.02-1.06 157.02 3.15z"/>
					</g>
					<g id="&lt;Group&gt;">
						<g id="&lt;Group&gt;">
							<path id="&lt;Path&gt;" class="s16" d="m2122.45 1385.56q0.47 0 0.88-0.27c0.51-0.35 12.45-8.74 14.07-32.11 1.65-23.64-14.87-32.39-15.58-32.76-0.76-0.39-1.69-0.09-2.09 0.68-0.39 0.76-0.09 1.69 0.67 2.09 0.64 0.32 15.4 8.25 13.9 29.77-1.52 21.89-12.61 29.68-12.72 29.76-0.71 0.49-0.89 1.45-0.41 2.16 0.3 0.44 0.79 0.68 1.28 0.68z"/>
						</g>
					</g>
					<g id="&lt;Group&gt;">
						<path id="&lt;Path&gt;" class="s9" d="m1905.94 1355.06l-0.03-1.06 120.54-3.61 0.03 1.06z"/>
					</g>
					<g id="&lt;Group&gt;">
						<g id="&lt;Group&gt;">
							<path id="&lt;Compound Path&gt;" fill-rule="evenodd" class="s16" d="m2162.78 1377.15l-7.95-0.16c-3.65-0.07-6.95-1.83-9.05-4.82-2.08-2.96-2.61-6.63-1.45-10.05 0.83-2.48 1.55-4.97 2.13-7.41 0.74-3.17 0.7-6.67-0.14-10.42-0.76-3.38 0.07-6.86 2.26-9.55 2.22-2.71 5.51-4.23 9.01-4.16l6.27 0.13c4.13 0.08 7.84 2.33 9.7 5.87 7.68 14.65 2.94 27.96-0.56 34.58-1.97 3.71-5.78 5.99-9.98 5.99q-0.12 0-0.24 0zm-5.25-43.46c-2.53-0.06-4.93 1.05-6.54 3.02-1.59 1.94-2.19 4.46-1.64 6.9 0.94 4.21 0.98 8.18 0.13 11.81-0.6 2.54-1.34 5.12-2.21 7.7-0.84 2.47-0.45 5.12 1.05 7.27 1.53 2.17 3.92 3.44 6.57 3.49l7.95 0.16c3.11 0.08 5.96-1.59 7.41-4.33 3.22-6.09 7.58-18.3 0.56-31.69-1.33-2.53-4.02-4.15-7.01-4.21z"/>
						</g>
					</g>
				</g>
			</g>
			<g id="&lt;Group&gt;">
				<g id="&lt;Group&gt;">
					<path id="&lt;Path&gt;" class="s17" d="m1903.92 815.43c0 0-61.22 79.1-57.06 140.26 4.16 61.15 76.67 12.27 76.67 12.27l6.25-144.81z"/>
				</g>
				<g id="&lt;Group&gt;">
					<path id="&lt;Path&gt;" class="s9" d="m1820.04 1362.97c0 0 0.53 17.98-11.35 23.7-11.87 5.73-46.81 12.22-33.03 23.04 7.91 6.21 43.24-0.01 53.28-0.55 10.04-0.55 19.7 3.31 26.8-3.82 7.8-7.84-2.41-44.19-2.41-44.19 0 0-8.42 4.99-16.22 5.21-11.25 0.32-17.07-3.39-17.07-3.39z"/>
				</g>
				<g id="&lt;Group&gt;">
					<path id="&lt;Path&gt;" class="s9" d="m1710.66 1362.85c0 0 0.53 17.98-11.34 23.71-11.87 5.72-46.82 12.21-33.04 23.04 7.91 6.21 43.24-0.01 53.28-0.56 10.04-0.55 19.71 3.31 26.8-3.81 7.8-7.84-2.41-44.19-2.41-44.19 0 0-8.42 4.98-16.22 5.21-11.25 0.32-17.07-3.4-17.07-3.4z"/>
				</g>
				<g id="&lt;Group&gt;">
					<g id="&lt;Group&gt;">
						<path id="&lt;Path&gt;" class="s16" d="m1697.64 1333.16c8.89-117.77 10.98-197.23 48.25-248.29 40.78-55.87 150.13-95.39 192.3-97.86 68.76-4.02 101.16 6.22 101.16 6.22 51.61 107.32-29.23 121.56-89.03 124.5q-2.97 0.14-5.95 0.33c-36.21 2.28-100.58 11.48-124.94 47.45-19.3 28.49-32.69 68.48-38.33 171.64-1.09 19.8-17.69 35.15-37.51 34.6 0 0-49.15 3.76-45.95-38.59z"/>
					</g>
				</g>
				<g id="&lt;Group&gt;">
					<g id="&lt;Group&gt;">
						<path id="&lt;Path&gt;" class="s16" d="m1795.23 1339.22c-1.17-118.09-4.84-178.39 30.61-230.72 22.77-33.63 57.01-59 101.78-75.44 31.95-11.72 69.53-18.92 111.7-21.39 68.76-4.02 99.65-12.32 99.65-12.32 55.65 137.39-147.91 108.22-200.9 166.75-23.09 25.51-51.7 74.01-57.35 177.17-1.08 19.8-17.68 35.15-37.5 34.61 0 0-47.56 4.52-47.99-38.66z"/>
					</g>
				</g>
				<g id="&lt;Group&gt;">
					<path id="&lt;Path&gt;" class="s18" d="m1795.57 1223.23l-0.79-0.04c0.03-0.7 3.53-70.92 15.34-95.53 14.94-31.15 58.26-63.65 103-77.3l0.23 0.76c-44.55 13.58-87.66 45.91-102.52 76.88-11.74 24.47-15.23 94.52-15.26 95.23z"/>
				</g>
				<g id="&lt;Group&gt;">
					<path id="&lt;Path&gt;" class="s11" d="m2090.2 781.22c0 0-29.25-50-96.69-34.66-67.43 15.34-94.9 84.22-99.73 249.61 0 0 62.43-2.29 226.45 52.11 19.42 6.45 47.92 1.34 37.95-31.76-18.55-61.52-36.51-184.23-67.98-235.3z"/>
				</g>
				<g id="&lt;Group&gt;">
					<path id="&lt;Path&gt;" class="s11" d="m2164.38 795.82l-69.36 13.04c0 0-121.29 35.87-155.25 36.15-33.95 0.28-48-24.55-48-24.55 0 0 27.38-46.48 84.78-68.42q8.08-3.11 16.96-5.48c9.94-2.63 20.05-4.93 30.16-5.05 114.49-1.31 140.71 54.31 140.71 54.31z"/>
				</g>
				<g id="&lt;Group&gt;">
					<path id="&lt;Path&gt;" class="s9" d="m2164.38 795.82c1.5 5.47-13.04 14.59-32.48 20.38-19.43 5.79-36.4 6.04-37.9 0.58-1.5-5.47 13.03-14.6 32.47-20.38 19.44-5.79 36.41-6.05 37.91-0.58z"/>
				</g>
				<g id="&lt;Group&gt;">
					<path id="&lt;Path&gt;" class="s17" d="m2023.55 741.52c-7.41 0.61-14.58-2.75-18.75-8.91l-13.04-19.3-3.79-5.6-22.26-32.93 9.75 36.66 5.85 22.01 1.66 6.27c1.37 5.12-1.39 10.4-6.34 12.29l-0.08 0.03c-1.9 5-3.97 14.8 8.06 16.25 14.13 1.71 33.69-12.88 39.06-26.78q-0.06 0.01-0.12 0.01z"/>
				</g>
				<g id="&lt;Group&gt;">
					<path id="&lt;Path&gt;" class="s5" d="m2006.56 660.67c0 0-0.28 6.38 5.61 18.21 8.6 17.32-10.85 28.93-17.19 24.73-0.79-0.52-5.82-31.8-5.82-31.8l5.93-5.24z"/>
				</g>
				<g id="&lt;Group&gt;">
					<path id="&lt;Path&gt;" class="s9" d="m1991.68 712.69q0.05 0.31 0.08 0.62c1.39 12.15-10.36 20.19-10.36 20.19l-0.09-0.05-5.85-22.01c3.64-2.18 8.94-4.72 12.51-3.73 1.87 0.52 3.26 1.99 3.71 4.98z"/>
				</g>
				<g id="&lt;Group&gt;">
					<path id="&lt;Path&gt;" class="s17" d="m1930.23 687.68c-4.52-23.79 7.45-46.06 26.73-49.72 19.29-3.67 38.6 12.65 43.12 36.45 4.52 23.79-7.45 46.05-26.73 49.72-19.29 3.67-38.6-12.65-43.12-36.45z"/>
				</g>
				<g id="&lt;Group&gt;">
					<path id="&lt;Path&gt;" class="s5" d="m1945.04 650.6c1.22 1.14-0.07 24.35 42 21.84 42.07-2.52 7.93-47.65-22.58-43.01-44.06 6.69-43.56 43.08-37.34 52.87 6.21 9.79 17.92-31.7 17.92-31.7z"/>
				</g>
				<g id="&lt;Group&gt;">
					<path id="&lt;Path&gt;" class="s5" d="m2003.15 611.32c0 0-16.11 15.85 0.29 24.76 16.4 8.92 56.38 6.58 49.47 28.21-6.92 21.62-10.62 52.41 9.22 52.39 19.85-0.01 31.63-3.75 42.34 10.01 10.7 13.76 43.67-2.29 37.38-19.9-6.29-17.6 20.47-39.24 4.53-53.5-15.94-14.27-49.92-22.85-61.86-43.15-11.95-20.29-68.27-11.09-81.37 1.18z"/>
				</g>
				<g id="&lt;Group&gt;">
					<path id="&lt;Path&gt;" class="s5" d="m1981.18 666.24c0 0 20.14 14.5 17.76 33.69 0 0 7.71-12.48 7.17-16.49-0.54-4.01-5.85-17.86-5.85-17.86z"/>
				</g>
				<g id="&lt;Group&gt;">
					<path id="&lt;Path&gt;" class="s17" d="m1996.64 679.77c-3.23 4.52-8.69 5.96-12.19 3.21-3.49-2.76-3.7-8.66-0.46-13.19 3.23-4.53 8.69-5.97 12.19-3.21 3.49 2.75 3.7 8.66 0.46 13.19z"/>
				</g>
				<g id="&lt;Group&gt;">
					<path id="&lt;Path&gt;" class="s19" d="m2103.76 726.88c-5.17-19.44-16.63-20.32-28.76-21.25-4.81-0.37-9.78-0.75-14.53-2.27q-3.4-1.09-4.7-3.73c-2.15-4.37 0.35-11.28 3.24-19.27 4.21-11.64 8.98-24.84 1.86-35.08-13.8-19.84-34.67-20.71-34.88-20.71-12.15 0.77-18.45-0.6-19.17-4.17-0.73-3.61 4.96-7.62 7.05-8.36 17.01-5.95 36.67-8.35 65.15 14.17 22.47 17.75 20.92 27.74 18.97 40.39-0.43 2.79-0.88 5.68-1.08 8.81-0.16 2.49 0.36 4.32 1.59 5.63 2.74 2.89 8.87 2.82 14.79 2.75 7.66-0.09 15.58-0.18 17.71 5.9 1.67 4.77-0.23 10.43-2.06 15.9-1.88 5.61-3.66 10.91-1.47 14.61 1.43 2.42 4.47 4.03 9.31 4.92l-0.26 1.43c-5.28-0.96-8.65-2.8-10.31-5.6-2.53-4.29-0.65-9.89 1.34-15.83 1.76-5.24 3.58-10.65 2.07-14.94-1.78-5.1-8.84-5.02-16.31-4.93-6.23 0.07-12.69 0.15-15.87-3.21q-2.27-2.4-1.99-6.72c0.21-3.2 0.66-6.12 1.1-8.94 1.88-12.18 3.36-21.8-18.43-39.03-27.93-22.07-47.15-19.74-63.76-13.93-2.02 0.71-6.59 4.28-6.11 6.69 0.25 1.22 2.47 3.96 17.71 3 0.29 0 21.9 0.89 36.11 21.33 7.55 10.87 2.43 25.03-1.69 36.42-2.78 7.68-5.18 14.31-3.3 18.13 0.69 1.4 1.95 2.38 3.84 2.98 4.58 1.47 9.47 1.84 14.2 2.21 12.66 0.96 24.62 1.88 30.05 22.32z"/>
				</g>
				<g id="&lt;Group&gt;">
					<path id="&lt;Path&gt;" class="s19" d="m1980.03 659.54c-13.05 0-21.44-8.99-21.53-9.09l0.98-0.9c0.1 0.11 10.1 10.8 25.14 8.27l0.22 1.32q-2.5 0.41-4.81 0.4z"/>
				</g>
				<g id="&lt;Group&gt;">
					<g id="&lt;Group&gt;">
						<path id="&lt;Compound Path&gt;" fill-rule="evenodd" class="s10" d="m1943.22 714.02c-2.57 0.81-5.46 0.66-8.35-0.46-4.65-1.83-8.85-5.99-11.54-11.42-5-10.15-3.27-21.74 3.86-25.86 3.05-1.75 6.77-1.92 10.48-0.47 4.65 1.82 8.86 5.98 11.54 11.42 5.01 10.14 3.28 21.74-3.86 25.85q-1.02 0.59-2.13 0.94zm-13.59-37.7q-1.04 0.32-1.98 0.87c-6.72 3.87-8.31 14.87-3.55 24.52 2.56 5.19 6.57 9.16 10.99 10.9 3.48 1.36 6.96 1.2 9.81-0.44 6.72-3.87 8.31-14.87 3.55-24.51-2.57-5.2-6.57-9.17-11-10.91-2.7-1.05-5.41-1.2-7.82-0.43z"/>
					</g>
				</g>
				<g id="&lt;Group&gt;">
					<g id="&lt;Group&gt;">
						<path id="&lt;Compound Path&gt;" fill-rule="evenodd" class="s10" d="m1975.12 702.32c-2.74 0.52-5.67 0.04-8.46-1.4-4.52-2.34-8.29-6.96-10.34-12.67-3.82-10.65-0.57-21.99 7.23-25.27 3.34-1.41 7.16-1.16 10.76 0.7 4.52 2.34 8.29 6.96 10.34 12.67 3.82 10.65 0.57 21.99-7.23 25.28q-1.12 0.46-2.3 0.69zm-9.08-39.04q-1.1 0.21-2.14 0.65c-7.35 3.09-10.37 13.85-6.74 23.98 1.95 5.46 5.54 9.86 9.84 12.09 3.38 1.74 6.95 1.98 10.07 0.67 7.35-3.09 10.38-13.85 6.74-23.98-1.95-5.46-5.54-9.86-9.84-12.09-2.63-1.36-5.37-1.8-7.93-1.32z"/>
					</g>
				</g>
				<g id="&lt;Group&gt;">
					<g id="&lt;Group&gt;">
						<path id="&lt;Path&gt;" class="s10" d="m1947.63 693.94q-0.21 0.04-0.38-0.11c-0.17-0.16-0.18-0.43-0.01-0.6 0.16-0.17 4.06-4.16 12.14-4.48 0.24-0.01 0.44 0.18 0.45 0.41 0.01 0.24-0.17 0.44-0.41 0.45-7.72 0.3-11.53 4.17-11.57 4.21q-0.1 0.1-0.23 0.12z"/>
					</g>
				</g>
				<g id="&lt;Group&gt;">
					<path id="&lt;Path&gt;" class="s20" d="m1951.17 712.59c0 0 11.98-1.99 23.12-8.45 0 0 3.22 11.57-9.55 14.82-7.43 1.88-13.57-6.37-13.57-6.37z"/>
				</g>
				<g id="&lt;Group&gt;">
					<path id="&lt;Path&gt;" class="s19" d="m1951.17 712.59c0 0 3.34 1.85 10.07 0.54 6.73-1.31 13.05-8.99 13.05-8.99 0 0-13.63 6.68-23.12 8.45z"/>
				</g>
				<g id="&lt;Group&gt;">
					<g id="&lt;Group&gt;">
						<path id="&lt;Path&gt;" class="s21" d="m1961.86 682.1c-0.25-0.02-0.48-0.15-0.62-0.37-0.24-0.37-0.13-0.87 0.24-1.11 0.22-0.15 5.05-3.91 10.72 0.33 0.36 0.27 0.45 0.77 0.19 1.13-0.26 0.36-0.72 0.36-1.13 0.19-4.12-1.76-8.72-0.41-8.91-0.29q-0.23 0.14-0.49 0.12z"/>
					</g>
				</g>
				<g id="&lt;Group&gt;">
					<path id="&lt;Path&gt;" class="s21" d="m1969.8 689.64c0.42 1.88-0.35 3.65-1.71 3.96-1.37 0.3-2.82-0.97-3.24-2.86-0.42-1.88 0.35-3.65 1.71-3.96 1.37-0.31 2.82 0.97 3.24 2.86z"/>
				</g>
				<g id="&lt;Group&gt;">
					<g id="&lt;Group&gt;">
						<path id="&lt;Path&gt;" class="s21" d="m1934.29 691.63c-0.24 0.08-0.5 0.05-0.72-0.1-0.36-0.26-0.45-0.76-0.19-1.13 0.15-0.21 3.17-5.53 10.03-3.77 0.44 0.11 0.71 0.54 0.61 0.97-0.11 0.44-0.53 0.61-0.98 0.61-4.47-0.06-8.21 2.94-8.34 3.12q-0.16 0.22-0.41 0.3z"/>
					</g>
				</g>
				<g id="&lt;Group&gt;">
					<path id="&lt;Path&gt;" class="s21" d="m1944.5 695.57c1.11 1.59 1.08 3.52-0.07 4.32-1.15 0.8-2.97 0.17-4.08-1.41-1.11-1.58-1.07-3.51 0.07-4.32 1.15-0.8 2.98-0.17 4.08 1.41z"/>
				</g>
				<g id="&lt;Group&gt;">
					<g id="&lt;Group&gt;">
						<path id="&lt;Path&gt;" class="s17" d="m2141.08 942.43c-24.96 36.06-55.85 55.88-121.53 67.85l-2.51-42.05c80.06-29.37 88.89-124.88 84.79-149.01-0.39-2.29 0.51-4.59 2.36-6.01 6.11-4.68 21.95-14.2 50.26-14.76 2.51-0.05 4.74 1.64 5.39 4.07 11.84 44.61 10.7 97.37-18.76 139.91z"/>
					</g>
				</g>
				<g id="&lt;Group&gt;" style="opacity: .3">
					<path id="&lt;Compound Path&gt;" fill-rule="evenodd" class="s22" d="m2115.61 955.1q-1.64 0-3.13-0.64c-5.19-2.21-7.01-9.69-4.07-16.66 1.69-3.99 4.71-7.19 8.08-8.55 2.32-0.94 4.63-0.97 6.69-0.09 5.18 2.21 7.01 9.69 4.06 16.67-1.68 3.99-4.7 7.18-8.07 8.54q-1.81 0.73-3.56 0.73zm4.44-24.3q-1.32 0-2.71 0.56c-2.82 1.14-5.37 3.88-6.83 7.32-2.46 5.82-1.17 11.96 2.86 13.69 1.49 0.63 3.2 0.6 4.95-0.11 2.82-1.14 5.37-3.88 6.82-7.32 2.46-5.82 1.18-11.96-2.86-13.69q-1.06-0.45-2.23-0.45z"/>
				</g>
				<g id="&lt;Group&gt;">
					<g id="&lt;Group&gt;">
						<path id="&lt;Path&gt;" class="s17" d="m2017.04 968.23c0 0-38.97-2.22-49.04 6.14-10.06 8.36-16.6 26.64-9.26 22.79 7.34-3.86 15.36-11.38 15.36-11.38 0 0-16.37 16.87-10.77 18.99 5.6 2.12 19.7-12.69 19.7-12.69 0 0-17.88 21.63-11.94 21.91 5.94 0.29 19.41-16.23 19.41-16.23 0 0-15.84 20.78-8.93 20.96 6.91 0.17 12.97-17.26 18.58-15.14 5.6 2.12 21.64 14.34 29.43-0.51z"/>
					</g>
					<g id="&lt;Group&gt;">
						<path id="&lt;Path&gt;" class="s23" d="m1974.49 986.06l-0.79-0.56c0.17-0.23 4.06-5.59 8.31-5.59q0.06 0 0.13 0l-0.03 0.97c-3.76-0.08-7.58 5.13-7.62 5.18z"/>
					</g>
					<g id="&lt;Group&gt;">
						<path id="&lt;Path&gt;" class="s23" d="m1983.42 992.36l-0.79-0.55c0.16-0.23 3.91-5.59 9.9-6.64l0.17 0.95c-5.59 0.98-9.24 6.19-9.28 6.24z"/>
					</g>
					<g id="&lt;Group&gt;">
						<path id="&lt;Path&gt;" class="s23" d="m1990.89 998.04l-0.79-0.56c0.2-0.27 4.86-6.75 9.45-6.24l-0.1 0.96c-4.04-0.44-8.52 5.78-8.56 5.84z"/>
					</g>
				</g>
				<g id="&lt;Group&gt;">
					<g id="&lt;Group&gt;">
						<path id="&lt;Path&gt;" class="s9" d="m1975.05 1028.18h-129.29c-2.71 0-5.11-1.72-5.97-4.27l-26.87-80.24c-1.35-4.04 1.68-8.21 5.97-8.21h124.33c5.67 0 10.7 3.6 12.49 8.94l25.3 75.57c1.35 4.04-1.68 8.21-5.96 8.21z"/>
					</g>
					<g id="&lt;Group&gt;">
						<path id="&lt;Path&gt;" class="s9" d="m1966.93 1028.18h-129.29c-2.71 0-5.11-1.72-5.96-4.27l-26.87-80.24c-1.35-4.04 1.67-8.21 5.96-8.21h124.34c5.66 0 10.69 3.6 12.48 8.94l25.31 75.57c1.35 4.04-1.68 8.21-5.97 8.21z"/>
					</g>
					<g id="&lt;Group&gt;">
						<path id="&lt;Path&gt;" class="s0" d="m1876.34 979.19c0-3.04 3.51-4.28 6.58-4.28 3.07 0 8.08 3.34 8.05 7.61-0.04 4.6-3.64 5.2-6.7 5.2-3.07 0-7.93-4.65-7.93-8.53z"/>
					</g>
					<g id="&lt;Group&gt;">
						<path id="&lt;Path&gt;" class="s9" d="m2014.5 1016.84h-176.92v11.34h180.6c2.1 0 3.8-1.7 3.8-3.8v-0.05c0-4.14-3.35-7.49-7.48-7.49z"/>
					</g>
					<g id="&lt;Group&gt;">
						<path id="&lt;Path&gt;" class="s16" d="m1957.74 976.02c-0.07-0.23-6.41-24.02-10.52-31.41-4.03-7.26-9.03-8.73-9.08-8.75l0.22-0.81c0.22 0.06 5.38 1.56 9.6 9.15 4.16 7.48 10.33 30.63 10.59 31.61z"/>
					</g>
					<g id="&lt;Group&gt;">
						<path id="&lt;Path&gt;" class="s16" d="m1976.85 1017.26c-4.8 0-5.99-2.12-6.04-2.21l-10.1-30.16 0.79-0.26 10.08 30.09q0 0 0 0c0.01 0 1.09 1.7 5.27 1.7z"/>
					</g>
				</g>
			</g>
			<g id="&lt;Group&gt;">
				<g id="&lt;Group&gt;">
					<path id="&lt;Path&gt;" class="s24" d="m722.75 645.76v432.3c0 9.2 7.46 16.66 16.66 16.66h809.99c9.2 0 16.66-7.46 16.66-16.66v-432.3c0-9.21-7.46-16.67-16.66-16.67h-809.99c-9.2 0-16.66 7.46-16.66 16.67z"/>
				</g>
				<g id="&lt;Group&gt;">
					<g id="&lt;Group&gt;">
						<path id="&lt;Path&gt;" class="s9" d="m722.75 1041.51v13.68c0 8.43 6.84 15.27 15.27 15.27h485.06q1.61-0.41 3.16-0.98c-34.52-33.53-100.96-86.16-191.78-103.92q-10-1.99-20.4-3.36-9.18-1.2-18.66-1.89-0.51-0.05-1.02-0.08c-19.31-1.34-38.61-0.64-57.63 1.36q-5.78 0.61-11.52 1.36-8.49 1.12-16.6 2.41c-90.84 14.48-148.94 45.05-185.88 76.15z"/>
					</g>
					<g id="&lt;Group&gt;">
						<path id="&lt;Path&gt;" class="s17" d="m932.96 984.34c-10.29-15.82 4.49-17.19 9.17-33.18l14.47-49.48 4.2-14.41 24.76-84.7 4.78 83.79 2.87 50.29 0.9 15.91c0.62 10.81 3.59 12.3 11.76 21.56 3.31 3.76 15.67 18.95-0.14 26.58-14.18 6.84-59.66 3.81-72.77-16.36z"/>
					</g>
					<g id="&lt;Group&gt;">
						<path id="&lt;Path&gt;" class="s9" d="m937.73 882.63c0 0-82.49-28.79-70.19-90.16 12.31-61.37 75.21 55.53 75.21 55.53l3.32 32.1z"/>
					</g>
					<g id="&lt;Group&gt;">
						<path id="&lt;Path&gt;" class="s9" d="m956.33 900.32q0.11 0.68 0.27 1.36c5.53 26.48 36.45 35.14 36.45 35.14l0.16-0.17-2.87-50.29c-9.37-2.03-22.55-3.65-29.54 0.91-3.65 2.39-5.61 6.47-4.47 13.05z"/>
					</g>
					<g id="&lt;Group&gt;">
						<path id="&lt;Path&gt;" class="s17" d="m1064.9 815.28c-6.4-48.78-44.38-84.01-84.83-78.7-40.45 5.31-68.04 49.15-61.64 97.93 6.4 48.77 44.38 84 84.83 78.69 40.45-5.31 68.04-49.15 61.64-97.92z"/>
					</g>
					<g id="&lt;Group&gt;">
						<path id="&lt;Path&gt;" class="s9" d="m927.81 822.8c0 0 24.34 4.91 34.67-13.22 10.34-18.14 16.43-33.67 58.66-32.08 42.23 1.58 76.46-23.2 74.68-45.69-1.79-22.5-24.9-29.88-46.11-19.13-21.22 10.76-0.31-12.86-24.56-26.38-24.26-13.52-52.98 24.71-76.47 23.2-23.49-1.51-94.9 20.25-81.14 82.97z"/>
					</g>
					<g id="&lt;Group&gt;">
						<path id="&lt;Path&gt;" class="s17" d="m918.59 840.78c7.49 4.76 17.01 3.2 21.27-3.49 4.25-6.7 1.63-15.98-5.85-20.75-7.49-4.76-17.01-3.2-21.27 3.49-4.26 6.7-1.64 15.98 5.85 20.75z"/>
					</g>
					<g id="&lt;Group&gt;">
						<path id="&lt;Path&gt;" class="s19" d="m1040.87 743.92q-4.96 0-11.01-0.85c-9.75-1.37-18.08-4-18.16-4.02l0.3-0.96c0.33 0.1 32.94 10.29 45.06 0.67 5.86-4.65 6.37-8.63 4.89-10.8-1.8-2.63-6.88-3.49-12.28-0.36-10.43 6.06-17.93 5.08-18.25 5.04l0.14-1c0.08 0.01 7.5 0.96 17.61-4.91 5.9-3.42 11.56-2.35 13.61 0.66 1.74 2.55 1.31 7.08-5.09 12.15-3.67 2.92-9.31 4.38-16.82 4.38z"/>
					</g>
					<g id="&lt;Group&gt;">
						<path id="&lt;Path&gt;" class="s19" d="m906.8 728.94l-0.58-0.82c8.92-6.31 19.67-5.69 32.11-4.98 6.18 0.36 12.57 0.73 19.52 0.34 21.13-1.16 37.8-21.17 38.23-22.41l0.96 0.29c-0.61 2.02-18.09 21.97-39.14 23.13-7 0.38-13.42 0.01-19.62-0.34-12.26-0.71-22.84-1.32-31.48 4.79z"/>
					</g>
					<g id="&lt;Group&gt;">
						<path id="&lt;Compound Path&gt;" fill-rule="evenodd" class="s19" d="m882.41 781.02c-0.83 0-1.85-0.55-2.26-3.04l-0.01-0.09 0.02-0.08c0.11-0.62 2.94-15 8.85-14.22 0.73 0.1 1.94 0.63 1.85 3.07-0.16 4.77-5.17 14.15-8.33 14.36q-0.06 0-0.12 0zm-1.25-3.11c0.18 1 0.54 2.15 1.3 2.1 2.41-0.15 7.24-8.91 7.4-13.38 0.06-1.9-0.73-2-0.99-2.04-4.1-0.53-6.93 9.34-7.71 13.32z"/>
					</g>
					<g id="&lt;Group&gt;">
						<g id="&lt;Group&gt;">
							<path id="&lt;Path&gt;" class="s21" d="m1005.54 821.16c0.39-0.24 0.66-0.66 0.7-1.14 0.06-0.83-0.54-1.55-1.37-1.62-0.48-0.04-11.64-2.03-17.26 9.82-0.35 0.75-0.07 1.64 0.68 2.01 0.74 0.37 1.48-0.03 2.01-0.67 5.21-6.44 13.92-8.2 14.32-8.17q0.52 0.03 0.92-0.23z"/>
						</g>
					</g>
					<g id="&lt;Group&gt;">
						<path id="&lt;Path&gt;" class="s21" d="m999.05 840.37c0.94 3.44 3.73 5.68 6.23 5 2.5-0.68 3.77-4.03 2.83-7.47-0.94-3.45-3.73-5.69-6.23-5.01-2.5 0.68-3.77 4.03-2.83 7.48z"/>
					</g>
					<g id="&lt;Group&gt;">
						<g id="&lt;Group&gt;">
							<path id="&lt;Path&gt;" class="s21" d="m1060.94 816.71c0.34-0.06 0.65-0.32 0.81-0.74 0.26-0.72 0-1.62-0.59-2.03-0.34-0.23-8.03-6.65-15.26 1.74-0.46 0.53-0.48 1.45-0.03 2.09 0.45 0.64 1.1 0.59 1.65 0.22 5.52-3.66 12.39-1.65 12.68-1.45q0.37 0.24 0.74 0.17z"/>
						</g>
					</g>
					<g id="&lt;Group&gt;">
						<path id="&lt;Path&gt;" class="s21" d="m1047.28 832.06c-0.44 3.54 1.29 6.68 3.86 7 2.57 0.32 5.02-2.29 5.46-5.83 0.44-3.55-1.28-6.69-3.85-7.01-2.58-0.32-5.02 2.29-5.47 5.84z"/>
					</g>
					<g id="&lt;Group&gt;">
						<g id="&lt;Group&gt;">
							<path id="&lt;Path&gt;" class="s18" d="m1007.77 887.56c-5.93 0-12.44-1.62-18.89-6.28-0.46-0.34-0.57-1-0.23-1.46 0.34-0.47 0.99-0.58 1.46-0.24 19.58 14.18 39.35-1.23 40.18-1.9 0.46-0.36 1.11-0.28 1.47 0.17 0.36 0.45 0.29 1.11-0.16 1.47-0.15 0.12-10.54 8.24-23.83 8.24z"/>
						</g>
						<g id="&lt;Group&gt;">
							<path id="&lt;Path&gt;" class="s18" d="m988.01 885.59c-0.53 0-0.98-0.4-1.04-0.94-0.28-2.72 0.85-5.85 3.36-9.31q0.09-0.12 0.12-0.17c0.32-0.48 0.96-0.62 1.44-0.31 0.49 0.3 0.64 0.93 0.33 1.42q-0.05 0.08-0.2 0.29c-2.74 3.77-3.12 6.36-2.97 7.87 0.06 0.57-0.36 1.08-0.93 1.14q-0.06 0.01-0.11 0.01z"/>
						</g>
					</g>
					<g id="&lt;Group&gt;">
						<path id="&lt;Compound Path&gt;" fill-rule="evenodd" class="s19" d="m1067.52 876.38q-3.56 0-7.14-1.31c-16.62-6.08-27.91-32.5-25.18-58.88 1.68-16.22 8.34-29.43 17.83-35.36 5.67-3.54 11.93-4.22 18.08-1.97 16.62 6.09 27.92 32.51 25.19 58.89-1.68 16.21-8.35 29.43-17.83 35.35-3.49 2.18-7.19 3.28-10.95 3.28zm-3.52-95.7c-3.2 0-6.36 0.93-9.33 2.79-8.67 5.42-14.8 17.77-16.38 33.04-2.6 25.05 7.8 50.02 23.16 55.64 5.23 1.92 10.54 1.34 15.37-1.68 8.68-5.42 14.81-17.77 16.39-33.04 2.59-25.06-7.8-50.02-23.17-55.65q-3.02-1.1-6.04-1.1z"/>
					</g>
					<g id="&lt;Group&gt;" style="opacity: .3">
						<path id="&lt;Path&gt;" class="s19" d="m952.78 816.54c-0.46 25.22 13.69 49.24 31.61 53.66 17.92 4.41 32.83-12.45 33.29-37.67 0.47-25.22-13.68-49.24-31.61-53.65-17.92-4.42-32.82 12.45-33.29 37.66z"/>
					</g>
					<g id="&lt;Group&gt;" style="opacity: .3">
						<path id="&lt;Path&gt;" class="s19" d="m1034.97 818.31c-0.46 25.33 12.33 50.03 28.56 55.17 16.23 5.14 29.75-11.23 30.21-36.56 0.45-25.33-12.33-50.03-28.56-55.17-16.23-5.14-29.76 11.23-30.21 36.56z"/>
					</g>
					<g id="&lt;Group&gt;">
						<path id="&lt;Compound Path&gt;" fill-rule="evenodd" class="s19" d="m991.42 871.31q-3.12 0-6.33-0.76c-19.71-4.69-35.24-30.44-34.62-57.42 0.36-15.69 5.97-28.87 15.41-36.15 6.51-5.02 14.16-6.68 22.12-4.79 19.71 4.69 35.24 30.45 34.62 57.42-0.36 15.69-5.97 28.87-15.41 36.15-4.76 3.68-10.14 5.55-15.79 5.55zm-37.85-58.11c-0.58 25.59 13.88 49.96 32.24 54.33 7.02 1.66 13.76 0.2 19.5-4.23 8.56-6.61 13.87-19.23 14.21-33.76 0.58-25.59-13.88-49.96-32.24-54.33-7.02-1.66-13.76-0.2-19.5 4.23-8.57 6.61-13.87 19.23-14.21 33.76z"/>
					</g>
					<g id="&lt;Group&gt;">
						<path id="&lt;Path&gt;" class="s19" d="m1015.89 827.26c-1.13 0-2.2-0.67-2.67-1.77-0.63-1.48 0.06-3.18 1.54-3.81 14.82-6.26 25.63-0.68 26.09-0.44 1.41 0.75 1.95 2.51 1.2 3.92-0.75 1.41-2.5 1.95-3.91 1.21-0.39-0.2-8.98-4.48-21.12 0.66q-0.56 0.23-1.13 0.23z"/>
					</g>
					<g id="&lt;Group&gt;">
						<path id="&lt;Path&gt;" class="s9" d="m867.17 793.2c-13.06-6.57-9.72-20.96-9.68-21.1l1.58 0.39c-0.13 0.53-3.05 13.27 8.84 19.25z"/>
					</g>
					<g id="&lt;Group&gt;">
						<path id="&lt;Path&gt;" class="s9" d="m858.56 810.68l-1.38-0.89c0.28-0.42 6.81-10.44 14.41-12.13l0.36 1.6c-6.94 1.54-13.33 11.32-13.39 11.42z"/>
					</g>
				</g>
				<g id="&lt;Group&gt;" style="opacity: .5">
					<path id="&lt;Path&gt;" class="s11" d="m1202.44 876.93h226.79c6.5 0 11.83-5.33 11.83-11.83v-130.94c0-6.51-5.33-11.83-11.83-11.83h-226.79c-6.5 0-11.83 5.32-11.83 11.83v130.94c0 6.5 5.33 11.83 11.83 11.83z"/>
				</g>
				<g id="&lt;Group&gt;">
					<path id="&lt;Path&gt;" class="s11" d="m1252.73 834.37h226.78c6.51 0 11.84-5.32 11.84-11.83v-130.94c0-6.51-5.33-11.83-11.84-11.83h-226.78c-6.51 0-11.83 5.32-11.83 11.83v130.94c0 6.51 5.32 11.83 11.83 11.83z"/>
				</g>
				<g id="&lt;Group&gt;">
					<g id="&lt;Group&gt;">
						<path id="&lt;Compound Path&gt;" class="s25" d="m1364.88 909.22c-7.73-8.48-47.04-7.6-77.37-1.06q0.06-2.44-0.16-5.1c-3.23-37.58-10.72-89.29-29.57-86.16-12.88 2.14-9.02 126.94-9.02 126.94-0.12 3.35-0.14 6.93-0.1 10.64-14.9-22.85-46.89-42.98-53.77-32.67-7.52 11.29 18.82 39.24 30.64 67.72 11.81 28.44 31.38 65.8 31.61 79.65h126.35c-0.74-38.05-9.02-149.44-18.61-159.96z"/>
					</g>
					<g id="&lt;Group&gt;">
						<g id="&lt;Group&gt;">
							<path id="&lt;Path&gt;" class="s17" d="m1294.34 873.71c-6.82 1.16-13.65-0.93-16.85 37.17-1.6 19.06-2.91 79.05 15.07 76.03 17.98-3.03 24.13-71.01 24.13-71.01 0 0-0.37 77.95 15.32 69.81 15.7-8.13 21.68-69.81 21.68-69.81 0 0-4.69 75.93 13.28 66.06 17.97-9.87 23.47-50.31 21.96-67.67-1.89-21.69-17.76-22.95-34.64-24.06 0 0-16.7-10.35-27.76-8.43-4.24 0.73-18.85-10.38-32.19-8.09z"/>
						</g>
					</g>
				</g>
				<g id="&lt;Group&gt;">
					<g id="&lt;Group&gt;">
						<path id="&lt;Path&gt;" class="s11" d="m722.75 1053.29v24.77c0 9.2 7.46 16.66 16.66 16.66h809.99c9.2 0 16.66-7.46 16.66-16.66v-16.52c-98.16-1.49-651.79-6.52-843.31-8.25z"/>
					</g>
					<g id="&lt;Group&gt;">
						<g id="&lt;Group&gt;">
							<g id="&lt;Group&gt;">
								<path id="&lt;Path&gt;" class="s24" d="m1513.05 1081.31l0.03-6.45-728.94-4.08-0.04 6.45z"/>
							</g>
						</g>
						<g id="&lt;Group&gt;">
							<g id="&lt;Group&gt;">
								<path id="&lt;Path&gt;" class="s14" d="m1146.93 1072.81l0.88 6.45 365.24 2.05 0.04-6.45z"/>
							</g>
						</g>
						<g id="&lt;Group&gt;">
							<path id="&lt;Path&gt;" class="s14" d="m1159.46 1076.04c0-6-4.87-10.86-10.87-10.86-6 0-10.86 4.86-10.86 10.86 0 6 4.86 10.86 10.86 10.86 6 0 10.87-4.86 10.87-10.86z"/>
						</g>
					</g>
				</g>
				<g id="&lt;Group&gt;">
					<g id="&lt;Group&gt;">
						<path id="&lt;Path&gt;" class="s26" d="m1537.09 653.73c0-4.44-3.59-8.04-8.03-8.04-4.44 0-8.04 3.6-8.04 8.04 0 4.44 3.6 8.03 8.04 8.03 4.44 0 8.03-3.59 8.03-8.03z"/>
					</g>
					<g id="&lt;Group&gt;">
						<path id="&lt;Path&gt;" class="s10" d="m1508.04 653.73c0-4.44-3.6-8.04-8.03-8.04-4.44 0-8.04 3.6-8.04 8.04 0 4.44 3.6 8.03 8.04 8.03 4.43 0 8.03-3.59 8.03-8.03z"/>
					</g>
					<g id="&lt;Group&gt;">
						<path id="&lt;Path&gt;" class="s14" d="m1478.27 653.73c0-4.44-3.6-8.04-8.04-8.04-4.43 0-8.03 3.6-8.03 8.04 0 4.44 3.6 8.03 8.03 8.03 4.44 0 8.04-3.59 8.04-8.03z"/>
					</g>
				</g>
				<g id="&lt;Group&gt;">
					<g id="&lt;Group&gt;">
						<path id="&lt;Path&gt;" class="s3" d="m1374.46 731.65h-109.97c-2.43 0-6.15-2.52-6.47-4.92-0.66-4.92 4.04-6.32 6.46-6.32l109.98 2.44c2.41 0 4.4 1.98 4.4 4.4 0 2.42-1.99 4.4-4.4 4.4z"/>
					</g>
					<g id="&lt;Group&gt;">
						<path id="&lt;Path&gt;" class="s3" d="m1345.89 710.99h-83.01c-1.82 0-4.63-2.02-4.88-3.95-0.49-3.95 3.05-5.08 4.88-5.08l83.01 1.96c1.83 0 3.32 1.59 3.32 3.54 0 1.94-1.49 3.53-3.32 3.53z"/>
					</g>
					<g id="&lt;Group&gt;">
						<path id="&lt;Path&gt;" class="s3" d="m1345.89 752.47h-83.01c-1.82 0-4.63-2.03-4.88-3.95-0.49-3.96 3.05-5.09 4.88-5.09l83.01 1.97c1.83 0 3.32 1.59 3.32 3.53 0 1.95-1.49 3.54-3.32 3.54z"/>
					</g>
					<g id="&lt;Group&gt;">
						<path id="&lt;Path&gt;" class="s3" d="m1359.15 792.99h98.96c2.17 0 5.52-2.27 5.81-4.42 0.6-4.43-3.63-5.7-5.81-5.7l-98.96 2.2c-2.18 0-3.96 1.79-3.96 3.96 0 2.18 1.78 3.96 3.96 3.96z"/>
					</g>
					<g id="&lt;Group&gt;">
						<path id="&lt;Path&gt;" class="s3" d="m1384.86 811.72h74.69c1.64 0 4.17-1.82 4.39-3.55 0.44-3.56-2.75-4.58-4.39-4.58l-74.69 1.77c-1.65 0-2.99 1.43-2.99 3.18 0 1.75 1.34 3.18 2.99 3.18z"/>
					</g>
					<g id="&lt;Group&gt;">
						<path id="&lt;Path&gt;" class="s3" d="m1460.01 762.38l-57.12 3.12c-4.56 0.25-8.31-3.55-8.01-8.1l3.51-53.43c0.27-4.17 3.86-7.34 8.03-7.11l52.01 2.99c3.94 0.23 7.05 3.41 7.18 7.35l1.6 47.32c0.14 4.14-3.06 7.64-7.2 7.86z"/>
					</g>
					<g id="&lt;Group&gt;">
						<path id="&lt;Path&gt;" class="s3" d="m1337.56 811l-24.51 1.33c-1.96 0.11-3.57-1.52-3.44-3.47l1.5-22.93c0.12-1.79 1.66-3.16 3.45-3.05l22.32 1.28c1.69 0.1 3.02 1.46 3.08 3.15l0.69 20.31c0.06 1.78-1.31 3.28-3.09 3.38z"/>
					</g>
					<g id="&lt;Group&gt;">
						<path id="&lt;Path&gt;" class="s3" d="m1294.09 811l-24.52 1.33c-1.95 0.11-3.56-1.52-3.44-3.47l1.51-22.93c0.12-1.79 1.65-3.16 3.45-3.05l22.32 1.28c1.69 0.1 3.02 1.46 3.08 3.15l0.69 20.31c0.06 1.78-1.32 3.28-3.09 3.38z"/>
					</g>
				</g>
				<g id="&lt;Group&gt;">
					<g id="&lt;Group&gt;" style="opacity: .5">
						<path id="&lt;Path&gt;" class="s11" d="m1455.74 1029.57h70.81c8.11 0 14.68-6.57 14.68-14.68v-97.16c0-8.1-6.57-14.67-14.68-14.67h-70.81c-8.11 0-14.68 6.57-14.68 14.67v97.16c0 8.11 6.57 14.68 14.68 14.68z"/>
					</g>
					<g id="&lt;Group&gt;">
						<path id="&lt;Path&gt;" class="s0" d="m1459.96 945.93h61.58c1.36 0 3.44-1.41 3.62-2.75 0.37-2.76-2.26-3.55-3.62-3.55l-61.58 1.37c-1.36 0-2.46 1.11-2.46 2.47 0 1.35 1.1 2.46 2.46 2.46z"/>
					</g>
					<g id="&lt;Group&gt;">
						<path id="&lt;Path&gt;" class="s0" d="m1475.96 934.36h46.48c1.02 0 2.6-1.13 2.73-2.21 0.28-2.22-1.71-2.85-2.73-2.85l-46.48 1.1c-1.03 0-1.86 0.89-1.86 1.98 0 1.09 0.83 1.98 1.86 1.98z"/>
					</g>
					<g id="&lt;Group&gt;">
						<path id="&lt;Path&gt;" class="s0" d="m1475.96 957.59h46.48c1.02 0 2.6-1.14 2.73-2.22 0.28-2.21-1.71-2.84-2.73-2.84l-46.48 1.1c-1.03 0-1.86 0.89-1.86 1.98 0 1.09 0.83 1.98 1.86 1.98z"/>
					</g>
					<g id="&lt;Group&gt;">
						<path id="&lt;Path&gt;" class="s0" d="m1459.96 992.39h61.58c1.36 0 3.44-1.42 3.62-2.76 0.37-2.75-2.26-3.54-3.62-3.54l-61.58 1.37c-1.36 0-2.46 1.11-2.46 2.46 0 1.36 1.1 2.47 2.46 2.47z"/>
					</g>
					<g id="&lt;Group&gt;">
						<path id="&lt;Path&gt;" class="s0" d="m1475.96 980.82h46.48c1.02 0 2.6-1.14 2.73-2.22 0.28-2.21-1.71-2.85-2.73-2.85l-46.48 1.11c-1.03 0-1.86 0.89-1.86 1.98 0 1.08 0.83 1.98 1.86 1.98z"/>
					</g>
					<g id="&lt;Group&gt;">
						<path id="&lt;Path&gt;" class="s0" d="m1475.96 1004.04h46.48c1.02 0 2.6-1.13 2.73-2.21 0.28-2.21-1.71-2.85-2.73-2.85l-46.48 1.1c-1.03 0-1.86 0.89-1.86 1.98 0 1.09 0.83 1.98 1.86 1.98z"/>
					</g>
				</g>
			</g>
			<g id="&lt;Group&gt;">
				<g id="&lt;Group&gt;">
					<path id="&lt;Path&gt;" class="s27" d="m617.29 635.15c0 0-9.87 86.92 10.02 86.19 19.89-0.74 60.22-37.95 139.14-29.38 78.92 8.57 175.19 28.72 236.74-73.08 61.55-101.81-70.9-135.53-70.9-135.53z"/>
				</g>
				<g id="&lt;Group&gt;">
					<path id="&lt;Path&gt;" class="s16" d="m416.95 659.34c-9.26 0.65-18.36-2.7-24.99-9.2l-3.59-3.51c-5.21-5.11-4.49-13.7 1.51-17.87l369.46-256.27c6.17-4.28 13.35-6.87 20.82-7.53l367.57-32.01c4.99-0.43 9.7 2.38 11.68 6.98 2.13 4.92 0.62 10.65-3.66 13.89l-363.09 274.58c-4.58 3.47-10.08 5.53-15.82 5.93z"/>
				</g>
				<g id="&lt;Group&gt;">
					<g id="&lt;Group&gt;">
						<path id="&lt;Path&gt;" class="s14" d="m525.7 946.62c2.04-7.83 9.7-12.4 17.11-10.22 7.41 2.19 11.76 10.31 9.72 18.14-2.03 7.84-9.69 12.41-17.1 10.23-7.4-2.19-11.76-10.31-9.73-18.15z"/>
					</g>
					<g id="&lt;Group&gt;">
						<path id="&lt;Path&gt;" class="s14" d="m537.71 950.63c-14.41-1.09-16.38 137.56-16.38 137.56 0 0 9.43 4.6 14.04 3.47 4.6-1.13 6.77-19.86 6.77-19.86l0.64 19.62c0 0 15.79 0.47 21.22-3.63 0 0-3.5-135.44-26.29-137.16z"/>
					</g>
				</g>
				<g id="&lt;Group&gt;">
					<path id="&lt;Path&gt;" class="s14" d="m532.54 940.45l-2.15-282.79c-2.92-25.66 8.48-50.86 29.69-65.61l173.5-120.63c3.81-2.64 9.05-1.7 11.69 2.11 1.32 1.9 0.85 4.51-1.05 5.83l-184.16 128.02c-14.17 9.85-21.78 26.69-19.8 43.83l2.41 292.55z"/>
				</g>
			</g>
			<g id="&lt;Group&gt;">
				<g id="&lt;Group&gt;">
					<path id="&lt;Path&gt;" class="s1" d="m2212.92 1441.9c0 0-31.03-31.63-20.35-49.64 10.67-18.02 28.69 38.69 28.69 38.69 0 0-9.34-67.05 10-68.22 19.35-1.16 0 68.22 0 68.22 0 0 7.17-16.18 14.18-17.18 7-1 5 13.72-7.51 28.13z"/>
				</g>
				<g id="&lt;Group&gt;">
					<path id="&lt;Path&gt;" class="s2" d="m2215.14 1442.69c-0.09-0.09-8.97-9.19-16.23-20.68-9.91-15.68-12.27-28.13-7.02-37 1.97-3.31 4.33-4.83 7.01-4.52 5.35 0.61 11.63 9.06 18.68 25.11 2.15 4.92 4.06 9.83 5.56 13.89-0.55-5.66-1.13-13.14-1.34-21.01-0.6-22.16 1.85-36.75 7.28-43.38 2.1-2.56 4.66-3.95 7.61-4.13 2.87-0.17 5.23 0.86 7.02 3.06 8.68 10.76 0.83 48.76-3.49 66.54 3.22-5.22 7.79-11.03 12.46-11.7 2.2-0.31 3.96 0.51 4.95 2.32 2.81 5.17-1.07 18.35-12.45 31.45l-1.71-1.49c11.18-12.88 14.25-25.04 12.16-28.87-0.52-0.97-1.36-1.34-2.63-1.16-6 0.86-13.01 13.88-15.21 18.82l-2.13-0.76c0.05-0.16 4.29-15.44 7.13-32.18 3.72-21.88 3.43-36.24-0.85-41.54-1.31-1.62-3-2.36-5.11-2.22-2.33 0.14-4.29 1.22-5.99 3.3-12.21 14.9-4.39 72.21-4.31 72.78l-2.2 0.5c-4.05-12.74-16.56-46.04-25.69-47.08-1.74-0.2-3.31 0.93-4.79 3.43-11.53 19.45 22.56 54.58 22.91 54.93z"/>
				</g>
			</g>
			<g id="&lt;Group&gt;">
				<g id="&lt;Group&gt;">
					<path id="&lt;Path&gt;" class="s9" d="m1636.74 1443.15c0 0 12.34 2.25 11.86 4.93-0.77 4.32-11.98 4.6-11.98 4.6z"/>
				</g>
				<g id="&lt;Group&gt;">
					<path id="&lt;Path&gt;" class="s9" d="m810.6 1437.73q-0.81 0-1.64-0.2c-3.75-0.91-6.05-4.68-5.15-8.43l6.87-28.41q0.07-0.28 0.16-0.55c2.82-8.52 11.04-14.15 20.01-13.67l245.58 12.9c3.85 0.2 6.81 3.49 6.61 7.34-0.21 3.85-3.5 6.84-7.34 6.6l-245.58-12.9c-2.63-0.15-5.03 1.46-5.95 3.9l-6.79 28.07c-0.77 3.2-3.63 5.35-6.78 5.35z"/>
				</g>
				<g id="&lt;Group&gt;">
					<path id="&lt;Path&gt;" class="s14" d="m1565.55 1484.18l-781.26-15.69c-7.45-0.18-13.37-6.32-13.27-13.77l0.25-18.35c0.09-7.39 6.09-13.35 13.49-13.4l780.26-4.42z"/>
				</g>
				<g id="&lt;Group&gt;">
					<path id="&lt;Path&gt;" class="s9" d="m771.29 1434.88l-48.82 2.54c-4.06 0.21-7.26 3.54-7.32 7.6l-0.04 3.41c-0.06 4.26 3.35 7.76 7.61 7.82l48.27 0.64z"/>
				</g>
				<g id="&lt;Group&gt;">
					<path id="&lt;Path&gt;" class="s9" d="m896.1 1422.2c0 0-8.15 19.99-0.65 48.9l49.76 1.17c0 0-12.53-27.01 0.67-50.41z"/>
				</g>
				<g id="&lt;Group&gt;">
					<path id="&lt;Path&gt;" class="s11" d="m1636.74 1443.21l-0.11 8.71c-0.04 2.43-1.49 4.62-3.72 5.59l-57.41 25.02c-8.4 3.66-18.31 1.2-23.78-6.16-3.99-5.37-7.04-13.22-6.03-24.43 1.3-14.33 4.88-22.69 8.7-27.57 4.06-5.18 10.99-7.16 17.24-5.12l62.5 20.31c1.58 0.52 2.63 1.99 2.61 3.65z"/>
				</g>
				<g id="&lt;Group&gt;">
					<path id="&lt;Path&gt;" class="s9" d="m869.13 1459.27q-0.01 0-0.02 0l-83.05-1.1c-0.6-0.01-1.07-0.5-1.06-1.09 0-0.59 0.48-1.06 1.07-1.06q0.01 0 0.01 0l83.06 1.1c0.6 0.01 1.07 0.5 1.06 1.09-0.01 0.59-0.49 1.06-1.07 1.06z"/>
				</g>
				<g id="&lt;Group&gt;">
					<path id="&lt;Path&gt;" class="s9" d="m1523.21 1467.96q-0.01 0-0.02 0l-561.71-7.46c-0.59-0.01-1.07-0.5-1.06-1.09 0.01-0.59 0.49-1.06 1.07-1.06q0.01 0 0.02 0l561.71 7.46c0.59 0.01 1.07 0.5 1.06 1.09-0.01 0.59-0.49 1.06-1.07 1.06z"/>
				</g>
			</g>
			<g id="&lt;Group&gt;">
				<g id="&lt;Group&gt;">
					<path id="&lt;Path&gt;" class="s1" d="m573.42 1410.62c0 0-30.59-31.18-20.06-48.94 10.52-17.76 28.28 38.15 28.28 38.15 0 0-9.21-66.11 9.86-67.25 19.08-1.15 0 67.25 0 67.25 0 0 7.07-15.95 13.98-16.94 6.9-0.99 4.93 13.52-7.4 27.73z"/>
				</g>
				<g id="&lt;Group&gt;">
					<path id="&lt;Path&gt;" class="s2" d="m575.61 1411.4c-1.45-1.47-35.15-36.22-22.92-56.86 1.93-3.26 4.26-4.76 6.9-4.46 5.28 0.6 11.47 8.93 18.42 24.75 2.11 4.83 3.99 9.64 5.45 13.63-1.68-17.31-3.63-51.77 5.89-63.41 2.07-2.52 4.59-3.89 7.5-4.07 2.84-0.17 5.16 0.85 6.92 3.02 8.56 10.6 0.82 48.06-3.43 65.59 3.17-5.14 7.67-10.87 12.27-11.53 2.18-0.31 3.91 0.5 4.88 2.29 2.78 5.09-1.05 18.08-12.27 31l-1.69-1.47c11.03-12.7 14.06-24.69 12-28.46-0.52-0.96-1.35-1.32-2.6-1.14-5.92 0.84-12.83 13.68-14.99 18.55l-2.1-0.75c0.04-0.15 4.22-15.22 7.03-31.72 3.67-21.57 3.38-35.73-0.84-40.95-1.3-1.6-2.94-2.32-5.04-2.2-2.3 0.14-4.23 1.21-5.91 3.26-12.03 14.69-4.32 71.18-4.24 71.75l-2.18 0.5c-3.99-12.56-16.32-45.39-25.32-46.42-1.72-0.19-3.26 0.91-4.73 3.38-11.36 19.18 22.25 53.81 22.59 54.15z"/>
				</g>
			</g>
			<g id="&lt;Group&gt;">
				<g id="&lt;Group&gt;">
					<path id="&lt;Path&gt;" class="s1" d="m1732.1 1511.08c0 0-23.46-23.92-15.39-37.55 8.07-13.62 21.7 29.27 21.7 29.27 0 0-7.07-50.72 7.57-51.6 14.63-0.88 0 51.6 0 51.6 0 0 5.42-12.24 10.72-12.99 5.3-0.76 3.79 10.37-5.68 21.27z"/>
				</g>
				<g id="&lt;Group&gt;">
					<path id="&lt;Path&gt;" class="s2" d="m1733.78 1511.68c-1.1-1.13-26.97-27.78-17.58-43.62 1.48-2.51 3.27-3.66 5.3-3.43 4.04 0.46 8.8 6.86 14.13 19 1.62 3.69 3.06 7.39 4.18 10.45-1.29-13.28-2.79-39.72 4.52-48.65q2.39-2.91 5.75-3.12c2.17-0.13 3.96 0.65 5.31 2.31 6.57 8.14 0.63 36.88-2.63 50.33 2.43-3.95 5.89-8.34 9.41-8.85 1.67-0.24 3 0.39 3.75 1.76 2.13 3.91-0.81 13.87-9.41 23.78l-1.3-1.12c8.46-9.75 10.78-18.95 9.2-21.84-0.4-0.74-1.03-1.01-1.99-0.88-4.55 0.65-9.84 10.5-11.5 14.24l-1.61-0.58c0.03-0.12 3.24-11.68 5.39-24.33 2.81-16.56 2.59-27.42-0.65-31.43-0.99-1.22-2.24-1.77-3.86-1.68-1.76 0.11-3.24 0.93-4.53 2.5-9.23 11.27-3.32 54.61-3.26 55.05l-1.67 0.38c-3.06-9.64-12.52-34.82-19.43-35.61-1.32-0.15-2.5 0.7-3.62 2.59-8.72 14.72 17.07 41.28 17.33 41.55z"/>
				</g>
			</g>
			<g id="&lt;Group&gt;">
				<g id="&lt;Group&gt;">
					<g id="&lt;Group&gt;">
						<path id="&lt;Path&gt;" class="s5" d="m1890.65 486.16c0-15.74 12.76-28.49 28.49-28.49 15.74 0 28.49 12.75 28.49 28.49 0 15.73-12.75 28.49-28.49 28.49-15.73 0-28.49-12.76-28.49-28.49z"/>
					</g>
				</g>
				<g id="&lt;Group&gt;">
					<g id="&lt;Group&gt;">
						<path id="&lt;Path&gt;" class="s5" d="m1867.15 461.11c-2.61 0-5.25-0.72-7.6-2.25-6.48-4.2-8.34-12.86-4.14-19.35 14.07-21.72 37.89-34.68 63.74-34.68 24.16 0 47.09 11.67 61.35 31.22 4.55 6.24 3.18 15-3.07 19.55-6.24 4.56-15 3.18-19.56-3.06-8.99-12.35-23.47-19.72-38.72-19.72-16.32 0-31.36 8.19-40.24 21.9-2.68 4.14-7.17 6.39-11.76 6.39z"/>
					</g>
				</g>
				<g id="&lt;Group&gt;">
					<g id="&lt;Group&gt;">
						<path id="&lt;Path&gt;" class="s5" d="m1825.6 432.48c-2.61 0-5.25-0.73-7.6-2.25-6.49-4.2-8.34-12.87-4.14-19.36 23.41-36.14 63.06-57.72 106.07-57.72 40.22 0 78.39 19.43 102.11 51.97 4.56 6.24 3.19 15-3.06 19.55-6.24 4.55-15 3.18-19.55-3.06-18.47-25.34-48.19-40.46-79.5-40.46-33.47 0-64.34 16.8-82.57 44.94-2.68 4.14-7.17 6.39-11.76 6.39z"/>
					</g>
				</g>
			</g>
		</g>
	</g>
</svg>